<?xml version="1.0" encoding="UTF-8" standalone="no"?>
<!DOCTYPE svg PUBLIC "-//W3C//DTD SVG 1.1//EN" "http://www.w3.org/Graphics/SVG/1.1/DTD/svg11.dtd">
<svg width="100%" height="100%" viewBox="0 0 579 385" version="1.1" xmlns="http://www.w3.org/2000/svg" xmlns:xlink="http://www.w3.org/1999/xlink" xml:space="preserve" xmlns:serif="http://www.serif.com/" style="fill-rule:evenodd;clip-rule:evenodd;stroke-linecap:square;stroke-linejoin:round;stroke-miterlimit:1.5;">
    <g transform="matrix(1,0,0,1,-430.396,-728.879)">
        <g transform="matrix(1,0,0,1,84.5295,108)">
            <rect x="-141" y="-149" width="1878" height="1544" style="fill:none;stroke:black;stroke-width:3px;"/>
        </g>
        <g transform="matrix(1,0,0,1,32,136.519)">
            <g>
                <path d="M400.517,716.726L757,974.694" style="fill:none;stroke:black;stroke-width:3px;"/>
                <path d="M908,919L974.768,767.143" style="fill:none;stroke:black;stroke-width:3px;"/>
                <path d="M811.067,798.828L757,974.694" style="fill:none;stroke:black;stroke-width:3px;"/>
                <path d="M811.067,798.828L974.768,767.143" style="fill:none;stroke:black;stroke-width:3px;"/>
                <path d="M757,974.694L908,919" style="fill:none;stroke:black;stroke-width:3px;"/>
                <path d="M429.107,630L400.517,716.726" style="fill:none;stroke:black;stroke-width:3px;"/>
                <path d="M811.067,798.828L429.107,630" style="fill:none;stroke:black;stroke-width:3px;"/>
                <path d="M521,594.481L429.107,630" style="fill:none;stroke:black;stroke-width:3px;"/>
                <path d="M521,594.481L973.091,767.143" style="fill:none;stroke:black;stroke-width:3px;"/>
            </g>
            <g transform="matrix(0.640398,0.596612,-0.434446,0.489153,541.559,-136.442)">
                <path d="M1053.67,559L537.431,840.858L489.16,972.018L942.278,765.158L1053.67,559Z" style="stroke:black;stroke-width:3.84px;"/>
            </g>
        </g>
    </g>
</svg>
