<?xml version="1.0" encoding="UTF-8" standalone="no"?>
<!DOCTYPE svg PUBLIC "-//W3C//DTD SVG 1.1//EN" "http://www.w3.org/Graphics/SVG/1.1/DTD/svg11.dtd">
<svg width="100%" height="100%" viewBox="0 0 1118 784" version="1.1" xmlns="http://www.w3.org/2000/svg" xmlns:xlink="http://www.w3.org/1999/xlink" xml:space="preserve" xmlns:serif="http://www.serif.com/" style="fill-rule:evenodd;clip-rule:evenodd;stroke-linecap:square;stroke-linejoin:round;stroke-miterlimit:1.5;">
    <g transform="matrix(1,0,0,1,-199.5,-138.923)">
        <g id="layer1" transform="matrix(1,0,0,1,315.808,195.44)">
            <g id="star">
                <g transform="matrix(1.04724,0,0,1.21579,-282.367,-279.898)">
                    <path d="M223.5,637L223.819,711.973C223.841,717.147 225.225,722.101 227.671,725.76C230.117,729.419 233.428,731.489 236.887,731.522L287,732L236.887,732.478C233.428,732.511 230.117,734.581 227.671,738.24C225.225,741.899 223.841,746.853 223.819,752.027L223.5,827L223.181,752.027C223.159,746.853 221.775,741.899 219.329,738.24C216.883,734.581 213.572,732.511 210.113,732.478L160,732L210.113,731.522C213.572,731.489 216.883,729.419 219.329,725.76C221.775,722.101 223.159,717.147 223.181,711.973L223.5,637Z" style="fill:none;stroke:black;stroke-width:2.64px;"/>
                </g>
                <g transform="matrix(0.621793,0,0,0.721865,-81.2949,7.15477)">
                    <path d="M223.5,637L223.819,711.973C223.841,717.147 225.225,722.101 227.671,725.76C230.117,729.419 233.428,731.489 236.887,731.522L287,732L236.887,732.478C233.428,732.511 230.117,734.581 227.671,738.24C225.225,741.899 223.841,746.853 223.819,752.027L223.5,827L223.181,752.027C223.159,746.853 221.775,741.899 219.329,738.24C216.883,734.581 213.572,732.511 210.113,732.478L160,732L210.113,731.522C213.572,731.489 216.883,729.419 219.329,725.76C221.775,722.101 223.159,717.147 223.181,711.973L223.5,637Z" style="fill:none;stroke:black;stroke-width:4.45px;"/>
                </g>
                <g transform="matrix(1.04724,0,0,1.21579,620.633,-801.898)">
                    <path d="M223.5,637L223.819,711.973C223.841,717.147 225.225,722.101 227.671,725.76C230.117,729.419 233.428,731.489 236.887,731.522L287,732L236.887,732.478C233.428,732.511 230.117,734.581 227.671,738.24C225.225,741.899 223.841,746.853 223.819,752.027L223.5,827L223.181,752.027C223.159,746.853 221.775,741.899 219.329,738.24C216.883,734.581 213.572,732.511 210.113,732.478L160,732L210.113,731.522C213.572,731.489 216.883,729.419 219.329,725.76C221.775,722.101 223.159,717.147 223.181,711.973L223.5,637Z" style="fill:none;stroke:black;stroke-width:2.64px;"/>
                </g>
                <g transform="matrix(0.621793,0,0,0.721865,821.705,-514.845)">
                    <path d="M223.5,637L223.819,711.973C223.841,717.147 225.225,722.101 227.671,725.76C230.117,729.419 233.428,731.489 236.887,731.522L287,732L236.887,732.478C233.428,732.511 230.117,734.581 227.671,738.24C225.225,741.899 223.841,746.853 223.819,752.027L223.5,827L223.181,752.027C223.159,746.853 221.775,741.899 219.329,738.24C216.883,734.581 213.572,732.511 210.113,732.478L160,732L210.113,731.522C213.572,731.489 216.883,729.419 219.329,725.76C221.775,722.101 223.159,717.147 223.181,711.973L223.5,637Z" style="fill:none;stroke:black;stroke-width:4.45px;"/>
                </g>
            </g>
        </g>
    </g>
</svg>
