<?xml version="1.0" encoding="UTF-8" standalone="no"?>
<!DOCTYPE svg PUBLIC "-//W3C//DTD SVG 1.1//EN" "http://www.w3.org/Graphics/SVG/1.1/DTD/svg11.dtd">
<svg width="100%" height="100%" viewBox="0 0 428 428" version="1.1" xmlns="http://www.w3.org/2000/svg" xmlns:xlink="http://www.w3.org/1999/xlink" xml:space="preserve" xmlns:serif="http://www.serif.com/" style="fill-rule:evenodd;clip-rule:evenodd;">
    <g transform="matrix(1,0,0,1,-577.559,-335.868)">
        <g transform="matrix(1,0,0,1,315.808,195.44)">
            <g id="g27338" transform="matrix(1.91316,0.850212,-0.850212,1.91316,475.476,354.154)">
                <g id="g27340">
                    <g id="path27342" transform="matrix(0.999197,0.0400761,-0.0400761,0.999197,0,0)">
                        <path d="M0,100C-3.156,100 -5.715,55.228 -5.715,0C-5.715,-55.228 -3.156,-100 -0,-100" style="fill:none;fill-rule:nonzero;stroke:black;stroke-width:1px;"/>
                    </g>
                    <g id="path27344" transform="matrix(0.98105,0.193756,-0.193756,0.98105,0,0)">
                        <path d="M0,100C-14.729,100 -26.67,55.228 -26.67,0C-26.67,-55.228 -14.729,-100 -0,-100L0,-100" style="fill:none;fill-rule:nonzero;stroke:black;stroke-width:1px;"/>
                    </g>
                    <g id="path27346" transform="matrix(0.932635,0.36082,-0.36082,0.932635,0,0)">
                        <path d="M0,100C-25.299,100 -45.807,55.228 -45.807,0C-45.807,-55.228 -25.299,-100 -0,-100L0,-100" style="fill:none;fill-rule:nonzero;stroke:black;stroke-width:1px;"/>
                    </g>
                    <g id="path27348" transform="matrix(0.834677,0.55074,-0.55074,0.834677,0,0)">
                        <path d="M0,100C-34.144,100 -61.823,55.228 -61.823,0C-61.823,-55.228 -34.144,-100 -0,-100L0,-100" style="fill:none;fill-rule:nonzero;stroke:black;stroke-width:1px;"/>
                    </g>
                    <g id="path27350" transform="matrix(0.647797,0.761813,-0.761813,0.647797,0,0)">
                        <path d="M0,100C-40.662,100 -73.626,55.228 -73.626,0C-73.626,-55.228 -40.662,-100 -0,-100L0,-100" style="fill:none;fill-rule:nonzero;stroke:black;stroke-width:1px;"/>
                    </g>
                    <g id="path27352" transform="matrix(0.320962,0.947092,-0.947092,0.320962,0,0)">
                        <path d="M0,100C-44.41,100 -80.411,55.228 -80.411,0C-80.411,-55.228 -44.41,-100 -0,-100L0,-100" style="fill:none;fill-rule:nonzero;stroke:black;stroke-width:1px;"/>
                    </g>
                    <g id="path27354" transform="matrix(0.121018,-0.99265,0.99265,0.121018,0,0)">
                        <path d="M0,-100C45.131,-100 81.717,-55.228 81.717,0C81.717,55.228 45.131,100 0,100" style="fill:none;fill-rule:nonzero;stroke:black;stroke-width:1px;"/>
                    </g>
                    <g id="path27356" transform="matrix(0.514696,-0.857373,0.857373,0.514696,0,0)">
                        <path d="M0,-100C42.776,-100 77.453,-55.228 77.453,0C77.453,55.228 42.776,100 0,100" style="fill:none;fill-rule:nonzero;stroke:black;stroke-width:1px;"/>
                    </g>
                    <g id="path27358" transform="matrix(0.761803,-0.647809,0.647809,0.761803,0,0)">
                        <path d="M0,-100C37.507,-100 67.912,-55.228 67.912,0C67.912,55.228 37.507,100 0,100" style="fill:none;fill-rule:nonzero;stroke:black;stroke-width:1px;"/>
                    </g>
                    <g id="path27360" transform="matrix(0.894927,-0.446213,0.446213,0.894927,0,0)">
                        <path d="M0,-100C29.681,-100 53.742,-55.228 53.742,0C53.742,55.228 29.681,100 0,100" style="fill:none;fill-rule:nonzero;stroke:black;stroke-width:1px;"/>
                    </g>
                    <g id="path27362" transform="matrix(0.963026,-0.269408,0.269408,0.963026,0,0)">
                        <path d="M0,-100C19.833,-100 35.91,-55.228 35.91,0C35.91,55.228 19.833,100 0,100" style="fill:none;fill-rule:nonzero;stroke:black;stroke-width:1px;"/>
                    </g>
                    <g id="path27364" transform="matrix(0.993842,-0.110805,0.110805,0.993842,0,0)">
                        <path d="M0,-100C8.633,-100 15.631,-55.228 15.631,0C15.631,55.228 8.633,100 0,100" style="fill:none;fill-rule:nonzero;stroke:black;stroke-width:1px;"/>
                    </g>
                </g>
                <g id="g27366">
                    <path id="path27368" d="M15.682,98.764C5.42,100.393 -5.42,100.393 -15.682,98.764" style="fill:none;fill-rule:nonzero;stroke:black;stroke-width:1px;"/>
                    <path id="path27370" d="M50.483,86.323C23.138,102.315 -21.631,102.564 -49.512,86.879C-49.839,86.696 -50.163,86.51 -50.483,86.323" style="fill:none;fill-rule:nonzero;stroke:black;stroke-width:1px;"/>
                    <path id="path27372" d="M69.65,71.756C46.92,93.82 -2.69,101.137 -41.157,88.099C-52.906,84.117 -62.708,78.495 -69.65,71.756" style="fill:none;fill-rule:nonzero;stroke:black;stroke-width:1px;"/>
                    <path id="path27374" d="M83.237,55.422C65.681,81.79 14.182,95.003 -31.789,84.932C-55.478,79.743 -74.19,69.01 -83.237,55.422" style="fill:none;fill-rule:nonzero;stroke:black;stroke-width:1px;"/>
                    <path id="path27376" d="M92.612,37.724C80.661,67.062 29.51,85.288 -21.638,78.434C-56.87,73.712 -84.38,57.933 -92.612,37.724" style="fill:none;fill-rule:nonzero;stroke:black;stroke-width:1px;"/>
                    <path id="path27378" d="M98.16,19.097C92.11,50.193 43.258,72.587 -10.954,69.117C-56.829,66.181 -93.04,45.411 -98.16,19.097" style="fill:none;fill-rule:nonzero;stroke:black;stroke-width:1px;"/>
                    <path id="path27380" d="M100,0C100,31.678 55.228,57.359 0,57.359C-55.228,57.359 -100,31.678 -100,0L-100,-0" style="fill:none;fill-rule:nonzero;stroke:black;stroke-width:1px;"/>
                    <path id="path27382" d="M98.16,-19.097C104.209,11.998 65.166,40.019 10.954,43.489C-43.258,46.959 -92.11,24.564 -98.16,-6.531C-98.972,-10.707 -98.972,-14.922 -98.16,-19.097" style="fill:none;fill-rule:nonzero;stroke:black;stroke-width:1px;"/>
                    <path id="path27384" d="M92.612,-37.724C104.562,-8.386 72.786,20.953 21.638,27.808C-29.51,34.662 -80.661,16.436 -92.612,-12.902C-95.937,-21.066 -95.937,-29.56 -92.612,-37.724" style="fill:none;fill-rule:nonzero;stroke:black;stroke-width:1px;"/>
                    <path id="path27386" d="M83.237,-55.422C100.793,-29.054 77.759,0.485 31.789,10.555C-14.182,20.625 -65.681,7.413 -83.237,-18.955C-91.055,-30.697 -91.055,-43.68 -83.237,-55.422" style="fill:none;fill-rule:nonzero;stroke:black;stroke-width:1px;"/>
                    <path id="path27388" d="M69.65,-71.756C92.381,-49.692 79.624,-21.236 41.157,-8.198C2.69,4.84 -46.92,-2.477 -69.65,-24.541C-84.652,-39.103 -84.652,-57.194 -69.65,-71.756" style="fill:none;fill-rule:nonzero;stroke:black;stroke-width:1px;"/>
                    <path id="path27390" d="M50.483,-86.323C77.828,-70.33 77.393,-44.651 49.512,-28.966C21.631,-13.281 -23.138,-13.531 -50.483,-29.523C-77.453,-45.296 -77.453,-70.549 -50.483,-86.322" style="fill:none;fill-rule:nonzero;stroke:black;stroke-width:1px;"/>
                    <path id="path27392" d="M15.682,-98.764C46.968,-93.796 65.309,-75.221 56.648,-57.276C47.987,-39.33 15.604,-28.81 -15.682,-33.778C-46.968,-38.746 -65.309,-57.32 -56.648,-75.266C-51.138,-86.683 -35.586,-95.603 -15.682,-98.764" style="fill:none;fill-rule:nonzero;stroke:black;stroke-width:1px;"/>
                    <path id="path27394" d="M45.399,-72.987C45.399,-58.605 25.073,-46.946 0,-46.946C-25.073,-46.946 -45.399,-58.605 -45.399,-72.987C-45.399,-87.369 -25.073,-99.028 0,-99.028C25.073,-99.028 45.399,-87.369 45.399,-72.987Z" style="fill:none;fill-rule:nonzero;stroke:black;stroke-width:1px;"/>
                    <path id="path27396" d="M30.902,-77.906C30.902,-68.116 17.067,-60.181 0,-60.181C-17.067,-60.181 -30.902,-68.116 -30.902,-77.906C-30.902,-87.696 -17.067,-95.631 0,-95.631C17.067,-95.631 30.902,-87.696 30.902,-77.906Z" style="fill:none;fill-rule:nonzero;stroke:black;stroke-width:1px;"/>
                    <path id="path27398" d="M15.643,-80.907C15.643,-75.951 8.64,-71.933 0,-71.933C-8.64,-71.933 -15.643,-75.951 -15.643,-80.907C-15.643,-85.863 -8.64,-89.88 0,-89.88C8.64,-89.88 15.643,-85.863 15.643,-80.907Z" style="fill:none;fill-rule:nonzero;stroke:black;stroke-width:1px;"/>
                </g>
                <path id="path27400" d="M100,0C100,55.228 55.228,100 0,100C-55.228,100 -100,55.228 -100,0C-100,-55.228 -55.228,-100 0,-100C55.228,-100 100,-55.228 100,0Z" style="fill:none;fill-rule:nonzero;stroke:black;stroke-width:1px;"/>
            </g>
        </g>
    </g>
</svg>
