<?xml version="1.0" encoding="UTF-8" standalone="no"?>
<!DOCTYPE svg PUBLIC "-//W3C//DTD SVG 1.1//EN" "http://www.w3.org/Graphics/SVG/1.1/DTD/svg11.dtd">
<svg width="100%" height="100%" viewBox="0 0 570 214" version="1.1" xmlns="http://www.w3.org/2000/svg" xmlns:xlink="http://www.w3.org/1999/xlink" xml:space="preserve" xmlns:serif="http://www.serif.com/" style="fill-rule:evenodd;clip-rule:evenodd;stroke-linecap:square;stroke-linejoin:round;stroke-miterlimit:1.5;">
    <g transform="matrix(1,0,0,1,-468.889,-196.498)">
        <g transform="matrix(1,0,0,1,84.5295,108)">
            <rect x="-141" y="-149" width="1878" height="1544" style="fill:none;stroke:black;stroke-width:3px;"/>
        </g>
        <g transform="matrix(1,0,0,1,25.0102,-359.381)">
            <g>
                <path d="M446,600L822,767.143" style="fill:none;stroke:black;stroke-width:3px;"/>
                <path d="M822,767.143L986,738" style="fill:none;stroke:black;stroke-width:3px;"/>
                <path d="M986,738L1011,683.571" style="fill:none;stroke:black;stroke-width:3px;"/>
                <path d="M822,767.143L841,710.786" style="fill:none;stroke:black;stroke-width:3px;"/>
                <path d="M841,710.786L1011,683.571" style="fill:none;stroke:black;stroke-width:3px;"/>
                <path d="M446,600L455,574" style="fill:none;stroke:black;stroke-width:3px;"/>
                <path d="M841,710.786L455,574" style="fill:none;stroke:black;stroke-width:3px;"/>
                <path d="M455,574L516,558" style="fill:none;stroke:black;stroke-width:3px;"/>
                <path d="M1011,683.571L516,558" style="fill:none;stroke:black;stroke-width:3px;"/>
            </g>
        </g>
    </g>
</svg>
